<?xml version="1.0" standalone="no"?>
<!DOCTYPE svg PUBLIC "-//W3C//DTD SVG 20010904//EN"
 "http://www.w3.org/TR/2001/REC-SVG-20010904/DTD/svg10.dtd">
<svg version="1.0" xmlns="http://www.w3.org/2000/svg"
 width="512.000000pt" height="512.000000pt" viewBox="0 0 512.000000 512.000000"
 preserveAspectRatio="xMidYMid meet">
<metadata>
Created by potrace 1.15, written by Peter Selinger 2001-2017
</metadata>
<g transform="translate(0.000000,512.000000) scale(0.100000,-0.100000)"
fill="#000000" stroke="none">
<path d="M2360 5109 c-136 -24 -291 -132 -372 -259 -108 -170 -116 -391 -21
-573 180 -342 640 -412 911 -139 107 107 158 220 169 372 17 253 -146 497
-390 579 -73 25 -215 35 -297 20z"/>
<path d="M1250 5048 c-117 -16 -175 -75 -173 -178 1 -30 17 -190 37 -355 20
-165 45 -381 57 -480 24 -210 32 -240 79 -299 43 -54 62 -63 370 -175 l245
-89 0 -1064 0 -1063 -23 -65 c-13 -36 -78 -155 -145 -265 -66 -110 -156 -258
-199 -329 -42 -71 -80 -144 -84 -162 -18 -94 33 -163 156 -209 121 -46 213
-32 281 42 30 32 422 661 462 740 51 99 66 179 77 412 5 119 13 252 16 297 l6
81 44 -1 c52 -1 48 8 65 -186 29 -359 26 -412 -41 -655 -21 -77 -68 -250 -105
-385 -36 -135 -80 -294 -97 -355 -33 -121 -34 -179 -1 -224 38 -50 77 -68 166
-76 94 -7 125 -2 183 31 72 41 87 71 189 395 52 167 102 322 109 344 32 91 95
305 110 372 31 142 38 348 45 1307 l6 959 350 127 c193 69 360 131 371 138 39
21 101 101 113 144 6 24 25 162 41 308 17 146 44 375 60 510 33 277 31 302
-26 356 -53 50 -187 73 -248 43 -16 -8 -42 -30 -57 -49 -27 -34 -29 -45 -78
-468 -33 -278 -56 -443 -66 -462 -19 -36 -45 -50 -160 -85 -49 -14 -101 -31
-115 -35 -14 -5 -101 -32 -193 -60 l-168 -50 -351 0 -350 0 -197 60 c-108 33
-234 72 -281 86 -47 15 -97 32 -112 40 -55 29 -52 9 -142 792 -9 73 -22 145
-30 160 -36 69 -94 93 -196 80z"/>
</g>
</svg>
